<?xml version="1.0" standalone="no"?>
<!DOCTYPE svg PUBLIC "-//W3C//DTD SVG 20010904//EN"
 "http://www.w3.org/TR/2001/REC-SVG-20010904/DTD/svg10.dtd">
<svg version="1.0" xmlns="http://www.w3.org/2000/svg"
 width="622.000000pt" height="622.000000pt" viewBox="0 0 622.000000 622.000000"
 preserveAspectRatio="xMidYMid meet">
<metadata>
Created by potrace 1.11, written by Peter Selinger 2001-2013
</metadata>
<g transform="translate(0.000000,622.000000) scale(0.100000,-0.100000)"
fill="#000000" stroke="none">
<path d="M1897 5007 c-665 -667 -1218 -1224 -1230 -1238 -48 -55 -92 -112
-101 -128 -5 -9 -12 -18 -15 -21 -30 -25 -133 -193 -197 -319 -79 -159 -134
-305 -174 -465 -22 -89 -24 -96 -35 -166 -4 -25 -9 -54 -11 -65 -19 -94 -26
-446 -12 -570 9 -77 23 -160 28 -175 1 -3 2 -8 1 -12 -1 -12 39 -170 64 -248
59 -185 127 -336 224 -496 23 -38 47 -78 54 -89 7 -11 14 -22 17 -25 3 -3 23
-30 45 -60 78 -108 276 -322 343 -371 11 -8 51 -40 90 -72 39 -31 76 -57 81
-57 6 0 11 -4 11 -8 0 -5 12 -15 27 -23 16 -8 30 -16 33 -20 21 -23 240 -140
364 -194 104 -46 314 -110 421 -130 11 -2 31 -5 45 -8 73 -14 143 -24 235 -32
54 -5 313 -5 348 0 15 2 55 6 90 10 34 3 85 10 112 15 28 5 61 12 75 14 14 2
43 9 65 14 213 55 223 56 289 37 60 -18 65 -19 159 -40 76 -17 116 -24 167
-31 19 -3 53 -8 75 -11 61 -9 432 -9 505 0 92 11 185 25 185 27 0 1 8 3 19 5
91 17 289 75 361 105 154 64 255 113 255 123 0 6 3 8 6 4 3 -3 29 8 57 25 68
41 184 116 205 133 146 117 193 157 254 218 93 92 181 194 243 283 27 38 53
70 57 72 5 2 8 8 8 14 0 5 13 28 29 51 106 156 246 496 285 697 3 14 7 36 10
50 6 24 11 52 21 115 27 167 27 563 0 665 -2 8 -7 35 -10 60 -15 107 -58 267
-109 405 -38 101 -143 318 -177 367 -10 14 -19 29 -19 32 0 9 -43 70 -52 74
-5 2 -8 8 -8 13 0 10 -113 160 -165 218 -37 42 -2434 2441 -2437 2440 -2 0
-547 -546 -1211 -1212z"/>
</g>
</svg>
